<svg width="24" height="24" viewBox="0 0 24 24" fill="none" xmlns="http://www.w3.org/2000/svg">
<path d="M21.4286 24H2.57143C1.15179 24 0 22.8482 0 21.4286V2.57143C0 1.15179 1.15179 0 2.57143 0H21.4286C22.8482 0 24 1.15179 24 2.57143V21.4286C24 22.8482 22.8482 24 21.4286 24ZM12.7554 7.81607L5.48571 15.0857L5.14821 18.1446C5.10536 18.5518 5.44821 18.9 5.86071 18.8571L8.91964 18.5196L16.1893 11.25C16.3125 11.1268 16.3125 10.9232 16.1893 10.7946L13.2161 7.82143C13.0821 7.69286 12.8786 7.69286 12.7554 7.81607ZM18.4821 7.13036L16.8696 5.51786C16.3661 5.01429 15.5518 5.01429 15.0536 5.51786L13.8161 6.75536C13.6929 6.87857 13.6929 7.08214 13.8161 7.21071L16.7893 10.1839C16.9125 10.3071 17.1161 10.3071 17.2446 10.1839L18.4821 8.94643C18.9804 8.44821 18.9804 7.63393 18.4821 7.13036Z" fill="black"/>
</svg>
