<?xml version="1.0" encoding="UTF-8"?>
<svg id="Layer_2" data-name="Layer 2" xmlns="http://www.w3.org/2000/svg" viewBox="0 0 23.91 23.67">
  <defs>
    <style>
      .cls-1 {
        fill: #fff;
      }
    </style>
  </defs>
  <g id="design">
    <g>
      <path class="cls-1" d="M1.18,13.19c-.3,0-.6-.11-.83-.34-.46-.46-.47-1.21,0-1.67L11.06,.35c.46-.46,1.21-.47,1.67,0l10.83,10.72c.46,.46,.47,1.21,0,1.67-.46,.46-1.21,.47-1.67,0L11.91,2.85,2.02,12.84c-.23,.23-.54,.35-.84,.35Z"/>
      <path class="cls-1" d="M11.96,23.67c-.65,0-1.18-.47-1.18-1.05V1.05c0-.58,.53-1.05,1.18-1.05s1.18,.47,1.18,1.05V22.62c0,.58-.53,1.05-1.18,1.05Z"/>
    </g>
  </g>
</svg>