<?xml version="1.0" encoding="UTF-8"?>
<svg id="Layer_2" data-name="Layer 2" xmlns="http://www.w3.org/2000/svg" viewBox="0 0 160 160">
  <defs>
    <style>
      .cls-1 {
        fill: pink;
      }

      .cls-2 {
        fill: #87ceeb;
      }

      .cls-3 {
        fill: none;
      }
    </style>
  </defs>
  <g id="Layer_1-2" data-name="Layer 1">
    <g>
      <path class="cls-2" d="M29.71,113.96c-.43,0-.86-.21-1.11-.6C9.95,85.27,17.63,47.24,45.73,28.59c28.1-18.65,66.13-10.96,84.78,17.14,.41,.61,.24,1.44-.37,1.85-.61,.41-1.44,.24-1.85-.37C110.45,20.33,74.08,12.98,47.2,30.81,20.33,48.65,12.98,85.02,30.81,111.89c.41,.61,.24,1.44-.37,1.85-.23,.15-.48,.22-.74,.22Z"/>
      <path class="cls-2" d="M63.53,113.11c0-.73,.25-1.33,.75-1.82s1.14-.74,1.9-.74,1.43,.25,1.92,.74,.74,1.1,.74,1.82-.25,1.31-.74,1.82-1.13,.77-1.92,.77-1.4-.26-1.9-.77-.75-1.12-.75-1.82Zm5.02,13.79h-4.74v-9.18c.19-.06,.48-.13,.88-.19,.39-.06,.82-.1,1.26-.1,.92,0,1.58,.16,1.98,.46,.41,.31,.61,.9,.61,1.78v7.23Zm-4.74-2.46h4.74v8.42c-.19,.06-.48,.12-.86,.18-.38,.05-.8,.08-1.25,.08-.92,0-1.58-.16-2-.48-.42-.32-.62-.9-.62-1.73v-6.46Z"/>
      <path class="cls-2" d="M96.64,122.25c.49,1.48,.32,2.82-.52,4.03-.83,1.21-2.32,2.17-4.44,2.87-1.66,.55-3.11,.76-4.34,.63-1.23-.13-2.01-.67-2.33-1.62-.14-.42-.17-.82-.09-1.2,.08-.37,.23-.7,.45-.98,.67,.14,1.44,.21,2.29,.24,.85,.02,1.76-.13,2.73-.45,1.48-.49,2.08-1.16,1.79-2.01-.12-.36-.35-.61-.68-.73-.33-.12-.82-.14-1.46-.04l-1.38,.12c-1.73,.19-3.12,.06-4.16-.39-1.04-.45-1.77-1.31-2.18-2.56-.47-1.42-.27-2.74,.59-3.96,.87-1.22,2.27-2.15,4.21-2.8,.97-.32,1.89-.52,2.75-.59,.86-.07,1.59,.01,2.19,.25,.6,.24,.99,.65,1.19,1.24,.13,.41,.17,.79,.11,1.14-.06,.36-.19,.68-.39,.97-.27-.07-.66-.11-1.17-.12-.51-.01-1.05,.02-1.62,.1-.57,.08-1.09,.19-1.55,.35-.73,.24-1.26,.53-1.61,.85-.34,.33-.44,.69-.31,1.1,.09,.26,.28,.45,.58,.57,.3,.11,.76,.14,1.39,.06l1.32-.1c1.94-.19,3.43-.04,4.47,.46,1.04,.5,1.76,1.35,2.17,2.57Z"/>
      <path class="cls-2" d="M116.26,103.46l2.14,2.32-3.51,3.23-2.02-2.2c-.56-.61-1.14-.9-1.74-.88-.6,.02-1.18,.29-1.73,.79-.39,.36-.7,.75-.93,1.16-.23,.41-.41,.81-.54,1.21l3.16,3.43-3.48,3.21-3.54-3.85c-.38-.41-.61-.83-.7-1.25-.08-.42-.07-.89,.05-1.39,.17-.82,.54-1.72,1.1-2.68,.56-.96,1.32-1.88,2.26-2.74,1.69-1.56,3.36-2.38,5.01-2.45,1.65-.07,3.14,.62,4.49,2.09Zm-9.71,11.14l3.48-3.21,5.95,6.46c-.11,.19-.29,.44-.53,.74-.25,.3-.53,.6-.86,.91-.66,.61-1.26,.93-1.79,.96-.53,.04-1.1-.27-1.69-.91l-4.57-4.96Zm7.3-6.72l3.51-3.23,5.95,6.46c-.11,.19-.29,.44-.53,.74-.25,.3-.53,.6-.86,.91-.66,.61-1.26,.93-1.8,.97-.54,.04-1.11-.26-1.7-.9l-4.57-4.96Z"/>
      <path class="cls-2" d="M126.96,94.48l-3.06-.97,1.69-7.85c-.57-.17-1.18-.14-1.83,.12-.65,.25-1.13,.81-1.47,1.66-.35,.9-.33,1.76,.05,2.59s1.11,1.48,2.21,1.95l2.12,.64c1.16,.24,2.13,.08,2.88-.5,.76-.58,1.34-1.38,1.74-2.42,.32-.84,.51-1.67,.55-2.5,.04-.83,.03-1.52-.06-2.08,.29-.23,.64-.38,1.03-.44s.77-.03,1.12,.11c.6,.23,1,.66,1.22,1.28,.22,.62,.27,1.38,.15,2.29-.12,.9-.38,1.88-.79,2.94-.59,1.53-1.41,2.8-2.46,3.8-1.05,1-2.28,1.63-3.71,1.88-1.42,.25-3,.04-4.73-.62-1.27-.49-2.3-1.12-3.08-1.89-.78-.77-1.34-1.61-1.68-2.53-.34-.92-.5-1.87-.46-2.85,.04-.98,.23-1.94,.59-2.88,.53-1.37,1.27-2.47,2.21-3.28,.94-.81,1.99-1.33,3.15-1.55,1.16-.22,2.35-.09,3.59,.39,.62,.24,1.02,.59,1.21,1.05,.19,.46,.21,1.01,.06,1.63l-2.26,10.04Z"/>
      <path class="cls-2" d="M133.79,66.43c-.7,.34-1.56,.71-2.56,1.1-1,.4-2.19,.81-3.55,1.23-1.36,.43-2.94,.89-4.74,1.38-.28-.28-.52-.63-.72-1.07-.2-.44-.3-.91-.3-1.42,0-.66,.14-1.2,.42-1.63,.28-.43,.8-.75,1.57-.96,1.56-.49,3.1-.98,4.64-1.47,1.54-.49,3.08-.99,4.64-1.5v-.13c-.96-.36-2.05-.73-3.26-1.1-1.22-.37-2.47-.72-3.76-1.04-1.29-.32-2.53-.6-3.73-.83-.15-.3-.27-.62-.37-.96-.1-.34-.14-.69-.14-1.06,0-.66,.14-1.23,.43-1.71s.77-.72,1.46-.72c.6,0,1.33,.09,2.21,.27,.88,.18,1.82,.42,2.83,.72,1.01,.3,2.05,.65,3.1,1.06,1.06,.41,2.08,.83,3.06,1.26,.98,.44,1.87,.88,2.66,1.33,2,1.15,3.5,2.21,4.5,3.18,.99,.97,1.49,1.94,1.49,2.9,0,.77-.23,1.4-.7,1.9-.47,.5-1.07,.81-1.79,.91-.38-.47-.83-.95-1.33-1.44-.5-.49-1.03-.96-1.6-1.41-.57-.45-1.12-.84-1.68-1.18-.11,.36-.34,.74-.7,1.12-.36,.38-1.05,.81-2.05,1.28Z"/>
      <ellipse class="cls-2" cx="59.8" cy="57.52" rx="4.57" ry="6.07"/>
      <ellipse class="cls-2" cx="85.1" cy="57.52" rx="4.57" ry="6.07"/>
      <ellipse class="cls-1" cx="96.57" cy="70.85" rx="3.18" ry="1.64"/>
      <ellipse class="cls-1" cx="49.35" cy="70.85" rx="3.18" ry="1.64"/>
      <path class="cls-2" d="M72.45,85.7c-4.9,0-8.88-5.37-8.88-11.98,0-.74,.6-1.33,1.33-1.33s1.33,.6,1.33,1.33c0,5.05,2.85,9.31,6.22,9.31s6.21-4.26,6.21-9.31c0-.74,.6-1.33,1.33-1.33s1.33,.6,1.33,1.33c0,6.6-3.98,11.98-8.88,11.98Z"/>
      <path class="cls-2" d="M28.86,134.81c-.94,0-1.85-.22-2.58-.84-.86-.72-1.28-2.14-.97-3.24,.12-.44,.35-.83,.67-1.16-.38-.21-.73-.48-1.03-.81-.83-.92-1.07-2.29-.62-3.48,.34-.88,1-1.52,1.84-1.81-.44-.59-.74-1.28-.78-2.08-.06-1.2,.55-2.41,1.53-3.01,2.04-1.23,4.1,.25,5.62,1.34,.12,.09,.23,.17,.35,.25,.09-.5,.23-1,.54-1.46,.46-.68,1.16-1.14,1.98-1.28,.83-.15,1.7,.05,2.38,.55,1.28,.93,1.35,2.57,1.38,3.45,.02,.57,.03,1.33-.14,2.13l-.04,.18c-.05,.22-.15,.68-.09,.79,.12,.21,.57,.47,.88,.64l.12,.07c.43,.25,.97,.45,1.61,.6,2.15,.5,4.78,.25,7.41-.71,.55-.2,1.17,.08,1.37,.64,.2,.55-.08,1.17-.64,1.37-3.01,1.09-6.07,1.37-8.62,.78-.84-.19-1.58-.47-2.2-.83l-.12-.07c-.53-.31-1.27-.73-1.67-1.44-.47-.83-.27-1.72-.13-2.32l.04-.16c.1-.45,.13-.92,.1-1.58-.03-.77-.12-1.53-.51-1.82-.21-.16-.49-.22-.75-.17-.24,.04-.45,.17-.58,.37-.17,.25-.24,.78-.29,1.25-.04,.33-.08,.68-.17,1.01-.07,.3-.27,.55-.55,.69-.27,.14-.6,.16-.88,.04-.67-.26-1.32-.74-2.02-1.24-1.42-1.03-2.49-1.72-3.26-1.25-.3,.18-.53,.67-.51,1.07,.07,1.41,2.44,2.53,3.33,2.95,.53,.25,.76,.89,.51,1.42-.25,.53-.89,.76-1.42,.51h0s0,0,0,0c-1.17-.56-2.11-.78-2.87-.7-.43,.05-.63,.35-.72,.59-.14,.37-.13,.92,.21,1.29,.75,.83,2.43,.87,3.62,.83,0,0,0,0,0,0,.6-.02,1.08,.44,1.1,1.03,.02,.59-.44,1.08-1.03,1.1h0c-1.56,.06-2.71,.47-2.87,1.03-.08,.29,.08,.84,.29,1.02,1.04,.87,3.73-.14,5.02-.63l.23-.09c1.33-.5,2.74-1.13,4.43-1.99,.32-.16,.69-.15,1,.02,.09,.05,9.18,5.01,15.77,.07,.47-.35,1.14-.26,1.49,.21,.35,.47,.26,1.14-.21,1.49-6.82,5.11-15.39,1.43-17.58,.35-1.55,.77-2.88,1.36-4.16,1.84l-.23,.09c-1.22,.46-2.95,1.11-4.56,1.11Z"/>
      <rect class="cls-3" width="160" height="160"/>
    </g>
  </g>
</svg>