<?xml version="1.0" encoding="UTF-8"?>
<svg id="Layer_2" data-name="Layer 2" xmlns="http://www.w3.org/2000/svg" viewBox="0 0 90 90">
  <defs>
    <style>
      .cls-1 {
        fill: #fffdd0;
      }

      .cls-2 {
        fill: pink;
      }

      .cls-3 {
        fill: #87ceeb;
      }

      .cls-4 {
        fill: none;
      }
    </style>
  </defs>
  <g id="design">
    <g>
      <rect class="cls-1" width="90" height="90"/>
      <path class="cls-3" d="M16.71,64.11c-.24,0-.48-.12-.63-.34-10.49-15.8-6.17-37.2,9.64-47.69,15.8-10.49,37.2-6.17,47.69,9.64,.23,.35,.14,.81-.21,1.04-.35,.23-.81,.14-1.04-.21-10.03-15.12-30.49-19.25-45.61-9.22-15.12,10.03-19.25,30.49-9.22,45.61,.23,.35,.14,.81-.21,1.04-.13,.08-.27,.13-.41,.13Z"/>
      <path class="cls-3" d="M35.74,63.63c0-.41,.14-.75,.42-1.03s.64-.41,1.07-.41,.8,.14,1.08,.41,.41,.62,.41,1.03-.14,.74-.41,1.03-.64,.43-1.08,.43-.79-.14-1.07-.43-.42-.63-.42-1.03Zm2.83,7.76h-2.66v-5.17c.11-.04,.27-.07,.49-.11,.22-.04,.46-.05,.71-.05,.52,0,.89,.09,1.12,.26,.23,.17,.34,.51,.34,1v4.07Zm-2.66-1.39h2.66v4.73c-.11,.04-.27,.07-.49,.1-.22,.03-.45,.05-.7,.05-.52,0-.89-.09-1.12-.27-.23-.18-.35-.5-.35-.97v-3.64Z"/>
      <path class="cls-3" d="M54.36,68.76c.28,.83,.18,1.59-.29,2.27-.47,.68-1.3,1.22-2.5,1.62-.93,.31-1.75,.43-2.44,.36-.69-.07-1.13-.38-1.31-.91-.08-.24-.1-.46-.05-.67,.04-.21,.13-.39,.25-.55,.38,.08,.81,.12,1.29,.13,.48,.01,.99-.07,1.54-.25,.83-.28,1.17-.65,1.01-1.13-.07-.21-.2-.34-.38-.41-.19-.07-.46-.08-.82-.02l-.77,.07c-.98,.11-1.76,.04-2.34-.22-.58-.25-.99-.74-1.23-1.44-.26-.8-.15-1.54,.33-2.22,.49-.69,1.28-1.21,2.37-1.57,.55-.18,1.06-.29,1.55-.33,.49-.04,.9,0,1.23,.14,.34,.14,.56,.37,.67,.7,.08,.23,.1,.44,.06,.64-.03,.2-.11,.38-.22,.55-.15-.04-.37-.06-.66-.07-.29,0-.59,.01-.91,.06-.32,.04-.61,.11-.87,.2-.41,.14-.71,.3-.9,.48-.19,.18-.25,.39-.17,.62,.05,.15,.16,.25,.32,.32,.17,.06,.43,.08,.78,.04l.74-.06c1.09-.11,1.93-.02,2.51,.26,.59,.28,.99,.76,1.22,1.44Z"/>
      <path class="cls-3" d="M65.39,58.2l1.2,1.3-1.97,1.82-1.14-1.23c-.31-.34-.64-.51-.98-.49-.34,.01-.66,.16-.97,.45-.22,.2-.4,.42-.53,.65-.13,.23-.23,.46-.3,.68l1.78,1.93-1.96,1.81-1.99-2.16c-.21-.23-.34-.47-.39-.7-.05-.24-.04-.5,.03-.78,.09-.46,.3-.97,.62-1.51,.32-.54,.74-1.05,1.27-1.54,.95-.88,1.89-1.34,2.82-1.38,.93-.04,1.77,.35,2.53,1.17Zm-5.46,6.26l1.96-1.81,3.35,3.63c-.06,.11-.16,.25-.3,.42-.14,.17-.3,.34-.48,.51-.37,.34-.71,.52-1.01,.54-.3,.02-.62-.15-.95-.51l-2.57-2.79Zm4.1-3.78l1.97-1.82,3.35,3.63c-.06,.11-.16,.25-.3,.42-.14,.17-.3,.34-.48,.51-.37,.34-.71,.52-1.01,.55-.3,.02-.62-.14-.96-.51l-2.57-2.79Z"/>
      <path class="cls-3" d="M71.41,53.14l-1.72-.55,.95-4.42c-.32-.1-.67-.08-1.03,.07-.36,.14-.64,.45-.82,.94-.19,.5-.19,.99,.03,1.46s.63,.83,1.25,1.1l1.19,.36c.65,.14,1.2,.04,1.62-.28,.43-.32,.75-.78,.98-1.36,.18-.47,.28-.94,.31-1.4,.03-.47,.01-.86-.03-1.17,.17-.13,.36-.21,.58-.25s.43-.02,.63,.06c.34,.13,.57,.37,.69,.72,.12,.35,.15,.78,.08,1.29-.07,.51-.22,1.06-.44,1.65-.33,.86-.79,1.57-1.38,2.14-.59,.56-1.29,.92-2.09,1.06-.8,.14-1.69,.02-2.66-.35-.72-.28-1.29-.63-1.73-1.06-.44-.43-.75-.91-.95-1.43-.19-.52-.28-1.05-.26-1.6,.02-.55,.13-1.09,.33-1.62,.3-.77,.71-1.39,1.24-1.85,.53-.46,1.12-.75,1.77-.87,.65-.12,1.32-.05,2.02,.22,.35,.13,.57,.33,.68,.59,.11,.26,.12,.57,.03,.92l-1.27,5.65Z"/>
      <path class="cls-3" d="M75.26,37.37c-.4,.19-.88,.4-1.44,.62-.56,.22-1.23,.45-2,.69-.77,.24-1.66,.5-2.66,.77-.16-.16-.29-.36-.4-.6-.11-.25-.17-.51-.17-.8,0-.37,.08-.68,.23-.92,.16-.24,.45-.42,.88-.54,.88-.28,1.75-.55,2.61-.83,.86-.28,1.73-.56,2.61-.85v-.07c-.54-.2-1.15-.41-1.84-.62-.68-.21-1.39-.41-2.11-.59-.73-.18-1.42-.34-2.1-.47-.08-.17-.15-.35-.21-.54-.05-.19-.08-.39-.08-.59,0-.37,.08-.69,.24-.96s.44-.41,.82-.41c.34,0,.75,.05,1.24,.15,.49,.1,1.02,.24,1.59,.4,.57,.17,1.15,.37,1.75,.59,.59,.23,1.17,.47,1.72,.71,.55,.25,1.05,.49,1.49,.75,1.13,.65,1.97,1.25,2.53,1.79,.56,.55,.84,1.09,.84,1.63,0,.43-.13,.79-.4,1.07-.26,.28-.6,.45-1.01,.51-.22-.26-.47-.53-.75-.81-.28-.28-.58-.54-.9-.79-.32-.25-.63-.47-.95-.67-.06,.2-.19,.41-.4,.63-.2,.22-.59,.46-1.15,.72Z"/>
      <ellipse class="cls-3" cx="33.64" cy="32.36" rx="2.57" ry="3.42"/>
      <ellipse class="cls-3" cx="47.87" cy="32.36" rx="2.57" ry="3.42"/>
      <ellipse class="cls-2" cx="54.32" cy="39.85" rx="1.79" ry=".92"/>
      <ellipse class="cls-2" cx="27.76" cy="39.85" rx="1.79" ry=".92"/>
      <path class="cls-3" d="M40.75,48.21c-2.75,0-5-3.02-5-6.74,0-.41,.34-.75,.75-.75s.75,.34,.75,.75c0,2.84,1.6,5.24,3.5,5.24s3.5-2.4,3.5-5.24c0-.41,.34-.75,.75-.75s.75,.34,.75,.75c0,3.71-2.24,6.74-5,6.74Z"/>
      <path class="cls-3" d="M16.23,75.83c-.53,0-1.04-.13-1.45-.47-.48-.4-.72-1.21-.55-1.82,.07-.25,.2-.47,.38-.65-.21-.12-.41-.27-.58-.46-.47-.52-.6-1.29-.35-1.96,.19-.49,.56-.86,1.03-1.02-.25-.33-.42-.72-.44-1.17-.04-.68,.31-1.36,.86-1.69,1.15-.69,2.31,.14,3.16,.75,.07,.05,.13,.1,.2,.14,.05-.28,.13-.57,.3-.82,.26-.38,.65-.64,1.12-.72,.47-.08,.96,.03,1.34,.31,.72,.52,.76,1.44,.78,1.94,.01,.32,.02,.75-.08,1.2l-.02,.1c-.03,.12-.09,.38-.05,.44,.07,.12,.32,.26,.49,.36l.07,.04c.24,.14,.55,.25,.9,.34,1.21,.28,2.69,.14,4.17-.4,.31-.11,.66,.05,.77,.36,.11,.31-.05,.66-.36,.77-1.69,.61-3.41,.77-4.85,.44-.47-.11-.89-.27-1.24-.47l-.06-.04c-.3-.17-.71-.41-.94-.81-.27-.47-.15-.97-.07-1.3l.02-.09c.05-.25,.07-.52,.05-.89-.02-.44-.07-.86-.29-1.02-.12-.09-.27-.12-.42-.1-.14,.02-.25,.1-.33,.21-.1,.14-.13,.44-.16,.7-.02,.19-.05,.38-.09,.57-.04,.17-.15,.31-.31,.39-.15,.08-.34,.09-.5,.02-.37-.15-.74-.41-1.13-.7-.8-.58-1.4-.96-1.83-.7-.17,.1-.3,.37-.29,.6,.04,.79,1.37,1.42,1.87,1.66,.3,.14,.43,.5,.29,.8-.14,.3-.5,.43-.8,.29h0s0,0,0,0c-.66-.31-1.19-.44-1.62-.4-.24,.03-.36,.19-.41,.33-.08,.21-.07,.51,.12,.73,.42,.47,1.37,.49,2.04,.46,0,0,0,0,0,0,.34-.01,.61,.25,.62,.58,.01,.33-.25,.61-.58,.62h0c-.88,.03-1.53,.26-1.61,.58-.05,.16,.04,.47,.16,.57,.58,.49,2.1-.08,2.83-.36l.13-.05c.75-.28,1.54-.64,2.49-1.12,.18-.09,.39-.09,.56,.01,.05,.03,5.16,2.82,8.87,.04,.27-.2,.64-.14,.84,.12,.2,.27,.14,.64-.12,.84-3.83,2.87-8.66,.81-9.89,.2-.87,.43-1.62,.77-2.34,1.03l-.13,.05c-.68,.26-1.66,.62-2.57,.63Z"/>
      <rect class="cls-4" width="90" height="90"/>
    </g>
  </g>
</svg>